<svg width="24" height="24" viewBox="0 0 24 24" fill="none" xmlns="http://www.w3.org/2000/svg">
<g clip-path="url(#clip0_14_158)">
<path d="M12.513 1.09692C11.868 1.09692 11.28 1.43692 10.106 2.11392L3.675 5.81992C2.56762 6.44554 1.64479 7.3521 0.99958 8.44817C0.354366 9.54425 0.00958182 10.7911 0 12.0629L0 12.2989C0.00965302 13.5691 0.353644 14.8144 0.997368 15.9094C1.64109 17.0045 2.56184 17.9107 3.667 18.5369L7.69 20.8599C10.044 22.2199 11.221 22.9019 12.514 22.9019C13.806 22.9029 14.984 22.2239 17.339 20.8639L21.59 18.4109C22.767 17.7309 23.354 17.3909 23.677 16.8319C24 16.2719 24.001 15.5919 24 14.2319V11.6019C24.0002 11.4195 23.9524 11.2402 23.8614 11.082C23.7704 10.9239 23.6394 10.7924 23.4815 10.7009C23.3236 10.6095 23.1445 10.5611 22.962 10.5607C22.7796 10.5604 22.6002 10.608 22.442 10.6989L13.714 15.7229C13.127 16.0599 12.834 16.2299 12.513 16.2299C12.19 16.2299 11.897 16.0619 11.309 15.7239L5.405 12.3309C5.108 12.1599 4.959 12.0749 4.84 12.0599C4.70857 12.0431 4.57526 12.07 4.46066 12.1365C4.34606 12.203 4.25656 12.3054 4.206 12.4279C4.161 12.5389 4.161 12.7099 4.163 13.0529C4.165 13.3049 4.163 13.4309 4.188 13.5469C4.241 13.8059 4.377 14.0399 4.575 14.2139C4.664 14.2909 4.773 14.3539 4.991 14.4799L11.306 18.1299C11.895 18.4699 12.19 18.6399 12.513 18.6399C12.837 18.6399 13.13 18.4699 13.719 18.1309L21.459 13.6619C21.661 13.5459 21.761 13.4899 21.836 13.5319C21.911 13.5759 21.911 13.6919 21.911 13.9239V15.1169C21.911 15.4569 21.912 15.6269 21.831 15.7659C21.751 15.9059 21.604 15.9899 21.309 16.1599L14.927 19.8449C13.749 20.5249 13.16 20.8649 12.514 20.8649C11.868 20.8649 11.278 20.5249 10.102 19.8429L4.132 16.3909L4.089 16.3659C3.47415 16.0059 2.96357 15.492 2.60748 14.8748C2.25138 14.2576 2.06202 13.5584 2.058 12.8459V11.6999C2.05829 11.3062 2.16188 10.9195 2.35841 10.5784C2.55495 10.2372 2.83756 9.95365 3.178 9.75592C3.47911 9.58152 3.82089 9.4896 4.16887 9.48942C4.51684 9.48925 4.85871 9.58082 5.16 9.75492L10.106 12.6129C11.28 13.2919 11.868 13.6319 12.513 13.6329C13.158 13.6329 13.746 13.2929 14.923 12.6159L22.405 8.30992C22.5712 8.21426 22.7092 8.07649 22.8052 7.9105C22.9011 7.74451 22.9517 7.55616 22.9517 7.36442C22.9517 7.17269 22.9011 6.98434 22.8052 6.81835C22.7092 6.65236 22.5712 6.51459 22.405 6.41892L14.92 2.10992C13.745 1.43492 13.158 1.09692 12.514 1.09692H12.513Z" fill="#54575B"/>
</g>
<defs>
<clipPath id="clip0_14_158">
<rect width="24" height="24" fill="white"/>
</clipPath>
</defs>
</svg>
