<svg width="500" height="500" viewBox="0 0 500 500" fill="none" xmlns="http://www.w3.org/2000/svg">
<rect width="500" height="500" fill="url(#paint0_linear_2007_148)"/>
<mask id="mask0_2007_148" style="mask-type:alpha" maskUnits="userSpaceOnUse" x="99" y="48" width="323" height="402">
<path d="M99.0384 449.605V48.9514H229.23V449.605H99.0384ZM194.768 143.223V48.9514H421.328V143.223H194.768ZM194.768 310.555V216.283H395.8V310.555H194.768Z" fill="url(#paint1_linear_2007_148)"/>
</mask>
<g mask="url(#mask0_2007_148)">
<path d="M99.0383 449.605V48.9514H229.23V449.605H99.0383ZM194.768 143.223V48.9514H421.328V143.223H194.768ZM194.768 310.555V216.283H395.8V310.555H194.768Z" fill="url(#paint2_linear_2007_148)"/>
<path d="M864.489 276.869C443.802 351.083 112.279 129.62 -29.7055 291.171L-8.94788 706.272L1732.06 581.917C1792.01 467.999 1805.37 246.003 1679.84 123.78C1522.92 -28.9991 1285.18 202.656 864.489 276.869Z" fill="url(#paint3_linear_2007_148)"/>
<path d="M866.738 326.91C441.454 373.738 127.547 131.382 -26.3451 283.355L-37.13 698.779L1709.03 687.307C1777.48 577.546 1807.66 356.959 1691.7 226.919C1546.75 64.3678 1292.02 280.081 866.738 326.91Z" fill="url(#paint4_linear_2007_148)"/>
<rect x="46.0162" y="-24.475" width="1643.68" height="97.9021" fill="white"/>
</g>
<defs>
<linearGradient id="paint0_linear_2007_148" x1="-2.40632e-06" y1="250" x2="500" y2="250.304" gradientUnits="userSpaceOnUse">
<stop stop-color="#072547"/>
<stop offset="1" stop-color="#174A7A"/>
</linearGradient>
<linearGradient id="paint1_linear_2007_148" x1="260.183" y1="48.9514" x2="260.183" y2="449.605" gradientUnits="userSpaceOnUse">
<stop stop-color="white"/>
<stop offset="1" stop-color="#24D7FF"/>
</linearGradient>
<linearGradient id="paint2_linear_2007_148" x1="260.183" y1="48.9514" x2="260.183" y2="449.605" gradientUnits="userSpaceOnUse">
<stop stop-color="#5BFFF9"/>
<stop offset="0.441" stop-color="#24D7FF"/>
</linearGradient>
<linearGradient id="paint3_linear_2007_148" x1="-20.19" y1="245.907" x2="1738.26" y2="615.578" gradientUnits="userSpaceOnUse">
<stop stop-color="#0F8EDA"/>
<stop offset="1" stop-color="#21BDFA"/>
</linearGradient>
<linearGradient id="paint4_linear_2007_148" x1="987.156" y1="183.566" x2="987.156" y2="501.748" gradientUnits="userSpaceOnUse">
<stop stop-color="#2287FF"/>
<stop offset="1" stop-color="#0059B3"/>
</linearGradient>
</defs>
</svg>
