<svg width="193" height="56" viewBox="0 0 193 56" fill="none" xmlns="http://www.w3.org/2000/svg">
<mask id="mask0_26_398" style="mask-type:alpha" maskUnits="userSpaceOnUse" x="173" y="43" width="15" height="13">
<ellipse cx="180.593" cy="49.6363" rx="6.89286" ry="6.36364" fill="#174A7A"/>
</mask>
<g mask="url(#mask0_26_398)">
<ellipse cx="180.593" cy="49.6363" rx="6.89286" ry="6.36364" fill="#174A7A"/>
<ellipse cx="179.214" cy="48.3636" rx="5.51429" ry="5.09091" fill="#0562D0"/>
<ellipse cx="2.75714" cy="2.54545" rx="2.75714" ry="2.54545" transform="matrix(-1 0 0 1 179.214 43.2727)" fill="white"/>
</g>
<mask id="mask1_26_398" style="mask-type:alpha" maskUnits="userSpaceOnUse" x="184" y="33" width="9" height="8">
<ellipse cx="188.864" cy="36.9091" rx="4.13571" ry="3.81818" fill="#174A7A"/>
</mask>
<g mask="url(#mask1_26_398)">
<ellipse cx="188.864" cy="36.9091" rx="4.13571" ry="3.81818" fill="#174A7A"/>
<ellipse cx="188.037" cy="36.1455" rx="3.30857" ry="3.05455" fill="#5CFFFA"/>
<ellipse cx="1.37857" cy="1.27273" rx="1.37857" ry="1.27273" transform="matrix(-1 0 0 1 187.486 33.0909)" fill="white"/>
</g>
<path fill-rule="evenodd" clip-rule="evenodd" d="M19.3 5.09094V46.759H32.84V32.2977H50.1632V22.4935H32.84V14.8952H52.8181V5.09094H32.84H29.2559H19.3ZM56.0512 46.759V5.09094H60.6973H68.2637H70.3877L80.4763 22.1871L84.3958 30.204L83.5958 5.09094H97.1357V46.759H92.4897H84.9232H82.7993L72.6443 29.5403L68.7914 21.6554L69.5912 46.759H56.0512ZM112.766 15.2016V46.759H126.306V15.2016H139.382V5.09094H126.306H112.766H99.691V15.2016H112.766ZM141.933 5.09094V46.759H155.473V34.136H161.049C166.801 34.136 171.359 32.8696 174.721 30.3369C178.084 27.8041 179.766 24.2296 179.766 19.6135C179.766 16.5496 179.014 13.9352 177.509 11.7701C176.005 9.60498 173.837 7.95051 171.005 6.80668C168.217 5.66286 164.854 5.09094 160.916 5.09094H155.473H151.889H141.933ZM155.473 14.8952V24.3318H160.319C162.398 24.3318 163.836 23.9028 164.633 23.045C165.474 22.1462 165.894 21.0024 165.894 19.6135C165.894 18.1837 165.474 17.0399 164.633 16.182C163.792 15.3241 162.465 14.8952 160.651 14.8952H155.473Z" fill="url(#paint0_linear_26_398)"/>
<path fill-rule="evenodd" clip-rule="evenodd" d="M13.7858 51.8498V0H73.663L78.1597 7.62007L77.9169 0H160.916C165.404 0 169.567 0.648562 173.229 2.14849C176.939 3.64944 179.998 5.92289 182.15 9.02119C184.326 12.1521 185.28 15.7637 185.28 19.6134C185.28 25.4982 183.058 30.6283 178.207 34.2816C173.58 37.7665 167.656 39.2269 161.049 39.2269H160.988V51.8498H136.419V20.2924H131.821V51.8498H107.252V20.2924H102.65V51.8498H79.5231L75.0272 44.2267L75.27 51.8498H50.5369V37.3886H38.3543V51.8498H13.7858ZM32.84 32.2977H50.1632V22.4934H32.84V14.8951H52.8181V5.09091H19.3001V46.7589H32.84V32.2977ZM56.0512 46.7589H69.5912L68.7915 21.6554L72.6443 29.5402L82.7993 46.7589H97.1357V5.09091H83.5958L84.3958 30.204L80.4763 22.187L70.3877 5.09091H56.0512V46.7589ZM112.766 15.2015V46.7589H126.306V15.2015H139.382V5.09091H99.691V15.2015H112.766ZM141.934 46.7589H155.473V34.136H161.049C166.801 34.136 171.359 32.8696 174.721 30.3368C178.084 27.8041 179.766 24.2296 179.766 19.6134C179.766 16.5496 179.014 13.9351 177.509 11.77C176.005 9.60494 173.837 7.95048 171.005 6.80665C168.217 5.66282 164.854 5.09091 160.916 5.09091H141.934V46.7589ZM164.633 23.0449C163.925 23.8075 162.71 24.2312 160.988 24.3159C160.773 24.3264 160.55 24.3317 160.319 24.3317H155.473V14.8951H160.651C160.765 14.8951 160.877 14.8968 160.988 14.9003C162.63 14.9509 163.845 15.3781 164.633 16.182C165.474 17.0398 165.894 18.1836 165.894 19.6134C165.894 21.0024 165.474 22.1462 164.633 23.0449Z" fill="url(#paint1_linear_26_398)"/>
<mask id="mask2_26_398" style="mask-type:alpha" maskUnits="userSpaceOnUse" x="0" y="10" width="9" height="8">
<ellipse cx="4.13571" cy="13.9999" rx="4.13571" ry="3.81818" fill="#072547"/>
</mask>
<g mask="url(#mask2_26_398)">
<ellipse cx="4.13571" cy="13.9999" rx="4.13571" ry="3.81818" fill="#072547"/>
<ellipse cx="3.30857" cy="13.2363" rx="3.30857" ry="3.05455" fill="#1DB1F2"/>
<ellipse cx="1.37857" cy="1.27273" rx="1.37857" ry="1.27273" transform="matrix(-1 0 0 1 2.75714 10.1818)" fill="white"/>
</g>
<mask id="mask3_26_398" style="mask-type:alpha" maskUnits="userSpaceOnUse" x="19" y="5" width="161" height="42">
<path d="M141.933 46.759V5.09094H155.473V46.759H141.933ZM161.049 34.136H151.889V24.3318H160.319C162.398 24.3318 163.836 23.9028 164.633 23.045C165.474 22.1462 165.894 21.0024 165.894 19.6135C165.894 18.1837 165.474 17.0399 164.633 16.182C163.792 15.3241 162.465 14.8952 160.651 14.8952H151.889V5.09094H160.916C164.854 5.09094 168.217 5.66286 171.005 6.80668C173.836 7.95051 176.005 9.60498 177.509 11.7701C179.014 13.9352 179.766 16.5496 179.766 19.6135C179.766 24.2296 178.084 27.8041 174.721 30.3369C171.359 32.8696 166.801 34.136 161.049 34.136Z" fill="url(#paint2_linear_26_398)"/>
<path d="M112.766 46.759V5.09094H126.306V46.759H112.766ZM99.691 15.2016V5.09094H139.382V15.2016H99.691Z" fill="url(#paint3_linear_26_398)"/>
<path d="M56.0511 46.759V5.09094H68.2637L69.5911 46.759H56.0511ZM84.9232 46.759L83.5957 5.09094H97.1357V46.759H84.9232ZM82.7992 46.759L72.6443 29.5403L60.6972 5.09094H70.3876L80.4762 22.1871L92.4896 46.759H82.7992Z" fill="url(#paint4_linear_26_398)"/>
<path d="M19.3 46.759V5.09094H32.84V46.759H19.3ZM29.2559 14.8952V5.09094H52.8181V14.8952H29.2559ZM29.2559 32.2977V22.4935H50.1632V32.2977H29.2559Z" fill="url(#paint5_linear_26_398)"/>
</mask>
<g mask="url(#mask3_26_398)">
<path d="M141.933 46.759V5.09094H155.473V46.759H141.933ZM161.049 34.136H151.889V24.3318H160.319C162.398 24.3318 163.836 23.9028 164.633 23.045C165.474 22.1462 165.894 21.0024 165.894 19.6135C165.894 18.1837 165.474 17.0399 164.633 16.182C163.792 15.3241 162.465 14.8952 160.65 14.8952H151.889V5.09094H160.916C164.854 5.09094 168.217 5.66286 171.005 6.80668C173.836 7.95051 176.005 9.60498 177.509 11.7701C179.014 13.9352 179.766 16.5496 179.766 19.6135C179.766 24.2296 178.084 27.8041 174.721 30.3369C171.359 32.8696 166.801 34.136 161.049 34.136Z" fill="url(#paint6_linear_26_398)"/>
<path d="M112.766 46.759V5.09094H126.306V46.759H112.766ZM99.691 15.2016V5.09094H139.382V15.2016H99.691Z" fill="url(#paint7_linear_26_398)"/>
<path d="M56.0511 46.759V5.09094H68.2637L69.5911 46.759H56.0511ZM84.9232 46.759L83.5957 5.09094H97.1357V46.759H84.9232ZM82.7992 46.759L72.6443 29.5403L60.6972 5.09094H70.3876L80.4762 22.1871L92.4896 46.759H82.7992Z" fill="url(#paint8_linear_26_398)"/>
<path d="M19.3 46.759V5.09094H32.84V46.759H19.3ZM29.2559 14.8952V5.09094H52.8181V14.8952H29.2559ZM29.2559 32.2977V22.4935H50.1632V32.2977H29.2559Z" fill="url(#paint9_linear_26_398)"/>
<path d="M98.9069 28.7944C55.1554 36.5126 20.6771 13.4805 5.91063 30.2817L8.06943 73.4523L189.134 60.5194C195.369 48.6719 196.759 25.5843 183.703 12.8731C167.383 -3.01591 142.658 21.0762 98.9069 28.7944Z" fill="url(#paint10_linear_26_398)"/>
<path d="M99.1409 33.9986C54.9114 38.8687 22.265 13.6638 6.26023 29.4689L5.1386 72.673L186.74 71.48C193.858 60.0648 196.996 37.1238 184.937 23.5995C169.862 6.69424 143.37 29.1285 99.1409 33.9986Z" fill="url(#paint11_linear_26_398)"/>
<rect x="13.7858" y="-2.54541" width="170.943" height="10.1818" fill="white"/>
</g>
<defs>
<linearGradient id="paint0_linear_26_398" x1="36.0591" y1="5.09094" x2="36.0591" y2="46.7589" gradientUnits="userSpaceOnUse">
<stop stop-color="#24D7FF"/>
<stop offset="0.51" stop-color="#5BFFF9"/>
</linearGradient>
<linearGradient id="paint1_linear_26_398" x1="19.3001" y1="25.9249" x2="179.766" y2="25.9249" gradientUnits="userSpaceOnUse">
<stop stop-color="#072547"/>
<stop offset="1" stop-color="#174A7A"/>
</linearGradient>
<linearGradient id="paint2_linear_26_398" x1="160.85" y1="5.09094" x2="160.85" y2="46.7589" gradientUnits="userSpaceOnUse">
<stop stop-color="white"/>
<stop offset="1" stop-color="#24D7FF"/>
</linearGradient>
<linearGradient id="paint3_linear_26_398" x1="119.536" y1="5.09094" x2="119.536" y2="46.7589" gradientUnits="userSpaceOnUse">
<stop stop-color="white"/>
<stop offset="1" stop-color="#24D7FF"/>
</linearGradient>
<linearGradient id="paint4_linear_26_398" x1="76.5934" y1="5.09094" x2="76.5934" y2="46.7589" gradientUnits="userSpaceOnUse">
<stop stop-color="white"/>
<stop offset="1" stop-color="#24D7FF"/>
</linearGradient>
<linearGradient id="paint5_linear_26_398" x1="36.0591" y1="5.09094" x2="36.0591" y2="46.7589" gradientUnits="userSpaceOnUse">
<stop stop-color="white"/>
<stop offset="1" stop-color="#24D7FF"/>
</linearGradient>
<linearGradient id="paint6_linear_26_398" x1="160.85" y1="5.09094" x2="160.85" y2="46.7589" gradientUnits="userSpaceOnUse">
<stop stop-color="#5BFFF9"/>
<stop offset="0.441" stop-color="#24D7FF"/>
</linearGradient>
<linearGradient id="paint7_linear_26_398" x1="119.536" y1="5.09094" x2="119.536" y2="46.7589" gradientUnits="userSpaceOnUse">
<stop stop-color="#5BFFF9"/>
<stop offset="0.441" stop-color="#24D7FF"/>
</linearGradient>
<linearGradient id="paint8_linear_26_398" x1="76.5934" y1="5.09094" x2="76.5934" y2="46.7589" gradientUnits="userSpaceOnUse">
<stop stop-color="#5BFFF9"/>
<stop offset="0.441" stop-color="#24D7FF"/>
</linearGradient>
<linearGradient id="paint9_linear_26_398" x1="36.0591" y1="5.09094" x2="36.0591" y2="46.7589" gradientUnits="userSpaceOnUse">
<stop stop-color="#5BFFF9"/>
<stop offset="0.441" stop-color="#24D7FF"/>
</linearGradient>
<linearGradient id="paint10_linear_26_398" x1="6.90025" y1="25.5743" x2="189.779" y2="64.0202" gradientUnits="userSpaceOnUse">
<stop stop-color="#0F8EDA"/>
<stop offset="1" stop-color="#21BDFA"/>
</linearGradient>
<linearGradient id="paint11_linear_26_398" x1="111.664" y1="19.0909" x2="111.664" y2="52.1818" gradientUnits="userSpaceOnUse">
<stop stop-color="#2287FF"/>
<stop offset="1" stop-color="#0059B3"/>
</linearGradient>
</defs>
</svg>
