<svg width="68" height="68" viewBox="0 0 68 68" fill="none" xmlns="http://www.w3.org/2000/svg">
<path d="M32.9796 58.3952C46.9502 58.3952 58.2756 47.0698 58.2756 33.0992C58.2756 19.1286 46.9502 7.80322 32.9796 7.80322C19.009 7.80322 7.68359 19.1286 7.68359 33.0992C7.68359 47.0698 19.009 58.3952 32.9796 58.3952Z" fill="#D03243"/>
<path d="M40.4768 29.143C42.1964 29.143 43.5904 26.4945 43.5904 23.2273C43.5904 19.9601 42.1964 17.3115 40.4768 17.3115C38.7573 17.3115 37.3633 19.9601 37.3633 23.2273C37.3633 26.4945 38.7573 29.143 40.4768 29.143Z" fill="#121629"/>
<path d="M25.2815 29.143C27.0011 29.143 28.3951 26.4945 28.3951 23.2273C28.3951 19.9601 27.0011 17.3115 25.2815 17.3115C23.562 17.3115 22.168 19.9601 22.168 23.2273C22.168 26.4945 23.562 29.143 25.2815 29.143Z" fill="#121629"/>
<path d="M54.6454 36.7649C55.1214 36.2044 54.6192 34.9959 53.5237 34.0655C52.4282 33.1352 51.1543 32.8353 50.6783 33.3958C50.2023 33.9563 50.7045 35.1648 51.8 36.0952C52.8955 37.0256 54.1694 37.3254 54.6454 36.7649Z" fill="#121629"/>
<path d="M13.9202 35.4726C15.0157 34.5422 15.5179 33.3336 15.0419 32.7732C14.5659 32.2127 13.2919 32.5125 12.1965 33.4429C11.101 34.3732 10.5988 35.5818 11.0748 36.1423C11.5508 36.7028 12.8247 36.4029 13.9202 35.4726Z" fill="#121629"/>
<path d="M12.4238 34.7472C14.7914 39.297 20.9182 48.062 32.9828 48.062C45.1325 48.062 51.1518 39.4821 53.4277 35.1179C53.2409 34.8718 53.2409 34.7472 52.7089 34.6227C50.234 37.9816 44.2456 43.9633 32.9828 43.9633C21.6613 43.9633 15.5342 37.6321 13.0084 34.1245C12.7647 34.1245 12.6401 34.4359 12.4238 34.7472Z" fill="#121629"/>
</svg>
